<?xml version="1.0" encoding="UTF-8"?>
<svg id="Layer_2" data-name="Layer 2" xmlns="http://www.w3.org/2000/svg" viewBox="0 0 551.43 277.59">
  <defs>
    <style>
      .cls-1 {
        fill: #fff;
      }
    </style>
  </defs>
  <g id="Layer_4" data-name="Layer 4">
    <g>
      <g>
        <path d="M274.46,157.09c-9.59,72.72-73.55,124.42-145.88,119.7C56.73,272.09.44,212.27,0,140.34-.44,68.5,54.97,8.05,126.6,2.4c72.93-5.75,137.27,45.47,147.76,118.44C285.02,46.89,349.45-4.58,421.94.32c72.53,4.91,129.25,65.43,129.49,138.01.24,72.65-56.1,133.48-128.58,138.87-72.83,5.42-137.73-46.21-148.39-120.12ZM546.78,138.8c0-74.1-60.15-134.17-134.34-134.17s-134.34,60.07-134.34,134.17,60.15,134.17,134.34,134.17,134.34-60.07,134.34-134.17ZM148.27,102.71l-1.93-8.18c-.52-2.22,1.07-5.04,3.05-5.05,5.53-.03,2.85,6.3,10.14,4.94.54,1.25,1.23,3.8,2.39,4.07l4.45,1.04c1.12.26,1.43,4.05,2.58,4.04l4.39-.05,2.21,4.32c.49.96,3.7.52,4.72.38l2.17,4.02c.56,1.04,4.28.88,5.09.33,2.37-20.18-7.33-39.99-25.27-49.79-3.01-1.64-7.55-.58-9.44,1.98l-5.6,7.59c-1.96,2.66-5.47,3.51-7.52,1.14,4.08-2.64,5.64-5.85,5.28-9.91-.31-3.44-2.86-7.13-7.15-7.17s-6.95,3.74-7.34,7.53,1.57,7.22,5.52,9.53c-2.26,2.48-6.11,1.6-8.05-1.54-4.22-6.81-8.95-12.46-15.02-8.99-17.76,10.15-27.35,29.58-24.79,49.73,1.21.53,4.67.54,5.23-.55l1.84-3.6,4.31-.52c1.04-.13,1.98-3.13,2.87-3.68,1-.61,4.21-.53,4.81-1.48l2.1-3.36c1.03-.44,4.52-.4,5.05-1.46l1.87-3.67c6.22,2.01,6.15-6.75,11.28-4.59,1.2.51,1.73,3.53,1.53,5.11l-1.1,8.68,9.91,9.65,10.42-10.49ZM105.55,196.82c4.36-4.54,4.31-10.6,2.66-16.57-1.13-4.09-5.59-7.83-10.23-9.92,6.5-3.45,9.11-9.88,8.37-16.51-.6-5.37-4.54-13.35-11.45-13.93-13.43-1.14-26.73-.43-40.32-.58l-.02,64.11,35.25-.14c5.5-.02,11.83-2.39,15.75-6.46ZM167.74,203.24l-20.5-31.4,21.33-32.4-19.15-.18-11.67,19.92-11.39-19.89-19.32.15,21.28,32.42-20.56,31.49,19.37.04,10.68-18.79,10.97,18.93,18.97-.28ZM220.94,187.91h-28.83s-.01-48.65-.01-48.65l-17.95.07-.02,64.12,46.97-.05-.16-15.48Z"/>
        <path class="cls-1" d="M148.27,102.71l-10.42,10.49-9.91-9.65,1.1-8.68c.2-1.58-.33-4.6-1.53-5.11-5.13-2.16-5.06,6.6-11.28,4.59l-1.87,3.67c-.53,1.05-4.03,1.01-5.05,1.46l-2.1,3.36c-.6.96-3.81.87-4.81,1.48-.89.55-1.83,3.56-2.87,3.68l-4.31.52-1.84,3.6c-.55,1.08-4.02,1.07-5.23.55-2.56-20.15,7.03-39.58,24.79-49.73,6.07-3.47,10.8,2.18,15.02,8.99,1.94,3.14,5.79,4.01,8.05,1.54-3.94-2.3-5.9-5.79-5.52-9.53s2.99-7.57,7.34-7.53,6.84,3.73,7.15,7.17c.37,4.06-1.19,7.27-5.28,9.91,2.06,2.37,5.56,1.52,7.52-1.14l5.6-7.59c1.89-2.56,6.43-3.62,9.44-1.98,17.93,9.79,27.63,29.6,25.27,49.79-.82.55-4.53.71-5.09-.33l-2.17-4.02c-1.02.14-4.23.58-4.72-.38l-2.21-4.32-4.39.05c-1.15.01-1.45-3.77-2.58-4.04l-4.45-1.04c-1.16-.27-1.86-2.82-2.39-4.07-7.29,1.36-4.61-4.97-10.14-4.94-1.99,0-3.58,2.83-3.05,5.05l1.93,8.18Z"/>
        <polygon class="cls-1" points="167.74 203.24 148.77 203.52 137.81 184.59 127.13 203.38 107.76 203.34 128.32 171.85 107.04 139.44 126.36 139.29 137.75 159.18 149.42 139.25 168.57 139.43 147.24 171.83 167.74 203.24"/>
        <polygon class="cls-1" points="220.94 187.91 221.09 203.4 174.12 203.45 174.14 139.33 192.1 139.26 192.11 187.9 220.94 187.91"/>
        <g>
          <path class="cls-1" d="M105.55,196.82c-3.91,4.07-10.24,6.44-15.75,6.46l-35.25.14.02-64.11c13.59.16,26.89-.56,40.32.58,6.92.59,10.85,8.56,11.45,13.93.74,6.63-1.86,13.06-8.37,16.51,4.64,2.09,9.1,5.83,10.23,9.92,1.65,5.97,1.7,12.03-2.66,16.57ZM85.19,164.02c1.73,0,3.89-2.98,3.88-4.66,0-1.35-1.56-4.59-3.03-4.62l-13.69-.25-.1,9.48,12.94.04ZM86.13,188.47c2.07,0,4.73-2.47,5.03-4.31.29-1.72-1.43-6.01-3.19-6.03l-15.57-.2-.15,10.53h13.88Z"/>
          <path d="M86.13,188.47h-13.88s.15-10.54.15-10.54l15.57.2c1.76.02,3.48,4.31,3.19,6.03-.31,1.84-2.96,4.32-5.03,4.31Z"/>
          <path d="M85.19,164.02l-12.94-.04.1-9.48,13.69.25c1.47.03,3.02,3.27,3.03,4.62.01,1.67-2.15,4.66-3.88,4.66Z"/>
        </g>
      </g>
      <g>
        <path class="cls-1" d="M546.78,138.8c0,74.1-60.15,134.17-134.34,134.17s-134.34-60.07-134.34-134.17S338.24,4.62,412.44,4.62s134.34,60.07,134.34,134.17ZM363.14,101.79c-2.9-.01-5.92.16-7.66.56l-11.23,29.99-.53-6.45h-14.29s0-24.05,0-24.05l-9.01-.12.04,32.14,32.89-.02,1.72-6.06,8.38-.15,2.1,6.27,9.39-.14-11.79-31.97ZM402.76,101.82l-5.98,19.67-6.28-19.72-9.4.09,11.76,31.83,7.65.12,11.68-31.92-9.43-.06ZM423.28,101.71h-9v32.16h9v-32.16ZM451.9,125.82l-14.44.1.05-24.12-9-.07-.02,32.13h23.36s.06-8.04.06-8.04ZM478.4,125.86l-14.5.03v-24.17s-9.01.3-9.01.3l.14,31.85h23.36s0-8,0-8ZM502.07,121.09l-.44-7.2-11.2.03v-4.25s13.29.03,13.29.03l.04-8.01-22.35.05v32.13s22.95-.02,22.95-.02l.03-8-13.95.08v-4.8s11.63-.04,11.63-.04ZM349.17,159.98c.18-9.29-6.27-16.39-15.52-16.35l-13.21.06v32.12s14.19-.22,14.19-.22c8.59-.13,14.38-7.15,14.55-15.61ZM373.42,162.96l-.1-7.2-11.72.07.05-4.22,13.58-.1.21-7.92-22.83.04v32.1s22.94.02,22.94.02l.05-8.01-14.01.03.05-4.76,11.78-.06ZM413.58,168.08c.68-3.83-.43-8.48-4.24-10.04l-12.01-4.91c4.46-4.02,7.61-.29,11.86.96l3.72-6.87c-5.27-3.55-12.29-5.33-18.37-2.43-4.06,1.94-5.98,6.29-5.73,10.27.51,7.95,9.32,7.34,15.86,11.56-5.69,3.27-9.11-.49-13.64-2.04l-3.63,7.99c11.2,5.45,24.49,4.91,26.17-4.48ZM433.28,175.67l-.04-24.07,9.31-.17-.12-7.84h-27.49s.28,7.93.28,7.93l9.09.12-.04,24.07,9.01-.05ZM459.35,169.57l1.57,6.16,9.72-.08-11.91-32.06-7.39.12-11.97,32.07,9.72-.09,1.68-6.1,8.59-.02ZM501.29,158.31c-.57-8.02-5.98-14.43-13.91-14.52l-14.69-.17-.03,32.15,13.73-.16c9.29-.1,15.59-7.71,14.9-17.3Z"/>
        <path d="M363.14,101.79l11.79,31.97-9.39.14-2.1-6.27-8.38.15-1.72,6.06-32.89.02-.04-32.14,9.01.12v24.04s14.29,0,14.29,0l.53,6.45,11.23-29.99c1.74-.4,4.76-.58,7.66-.56ZM362.24,121.51l-2.95-9.12-2.73,9.29,5.68-.17Z"/>
        <path d="M501.29,158.31c.68,9.6-5.61,17.2-14.9,17.3l-13.73.16.03-32.15,14.69.17c7.93.09,13.34,6.5,13.91,14.52ZM489.44,152.96c-1.82-1.23-5.64-1.54-7.79-1.35l-.03,15.91c1.57.46,5.96.16,7.73-1.08,3.66-2.57,3.75-10.99.09-13.48Z"/>
        <path d="M349.17,159.98c-.16,8.46-5.95,15.48-14.55,15.61l-14.19.22v-32.12s13.22-.06,13.22-.06c9.24-.04,15.7,7.06,15.52,16.35ZM336.35,152.3c-1.82-.79-5.85-.84-6.94-.22v15.37c1.8.43,5.68.24,7.48-.77,4.2-2.36,3.96-12.43-.54-14.38Z"/>
        <polygon points="373.42 162.96 361.63 163.02 361.58 167.78 375.6 167.74 375.55 175.75 352.62 175.74 352.61 143.64 375.44 143.59 375.22 151.51 361.64 151.61 361.59 155.83 373.31 155.76 373.42 162.96"/>
        <path d="M413.58,168.08c-1.67,9.39-14.96,9.93-26.17,4.48l3.63-7.99c4.53,1.55,7.95,5.3,13.64,2.04-6.54-4.21-15.34-3.6-15.86-11.56-.26-3.98,1.66-8.33,5.73-10.27,6.08-2.9,13.1-1.12,18.37,2.43l-3.72,6.87c-4.25-1.24-7.4-4.98-11.86-.96l12.01,4.91c3.81,1.56,4.92,6.21,4.24,10.04Z"/>
        <polygon points="502.07 121.09 490.44 121.13 490.44 125.93 504.39 125.85 504.36 133.85 481.41 133.87 481.41 101.74 503.76 101.69 503.73 109.7 490.43 109.67 490.44 113.92 501.64 113.89 502.07 121.09"/>
        <path d="M459.35,169.57l-8.59.02-1.68,6.1-9.72.09,11.97-32.07,7.39-.12,11.91,32.06-9.72.08-1.57-6.16ZM457.76,163.42l-2.78-9.85-2.69,9.65,5.47.19Z"/>
        <polygon points="402.76 101.82 412.19 101.89 400.51 133.8 392.86 133.69 381.1 101.86 390.5 101.77 396.78 121.49 402.76 101.82"/>
        <polygon points="433.28 175.67 424.27 175.72 424.31 151.65 415.21 151.53 414.93 143.59 442.43 143.6 442.55 151.44 433.24 151.61 433.28 175.67"/>
        <polygon points="451.9 125.82 451.84 133.86 428.48 133.86 428.5 101.73 437.51 101.8 437.46 125.92 451.9 125.82"/>
        <polygon points="478.4 125.86 478.4 133.85 455.04 133.86 454.9 102.01 463.92 101.72 463.91 125.89 478.4 125.86"/>
        <rect x="414.28" y="101.71" width="9" height="32.16"/>
        <polygon class="cls-1" points="362.24 121.51 356.56 121.68 359.29 112.39 362.24 121.51"/>
        <path class="cls-1" d="M489.44,152.96c3.66,2.49,3.58,10.91-.09,13.48-1.77,1.24-6.16,1.54-7.73,1.08l.03-15.91c2.15-.19,5.97.12,7.79,1.35Z"/>
        <path class="cls-1" d="M336.35,152.3c4.51,1.95,4.74,12.02.54,14.38-1.8,1.01-5.68,1.2-7.49.77v-15.37c1.1-.62,5.13-.57,6.95.22Z"/>
        <polygon class="cls-1" points="457.76 163.42 452.29 163.23 454.98 153.58 457.76 163.42"/>
      </g>
    </g>
  </g>
</svg>